 <svg version="1.0" xmlns="http://www.w3.org/2000/svg" width="100px" height="50px" viewBox="0 0 700.000000 168.000000" preserveAspectRatio="xMidYMid meet">
<metadata>
Created by potrace 1.12, written by Peter Selinger 2001-2015
</metadata>
<g transform="translate(0.000000,168.000000) scale(0.100000,-0.100000)" fill="#333399" stroke="none">
<path d="M3170 1571 c-15 -29 -12 -46 9 -65 26 -24 62 -17 80 16 14 24 14 28
-3 47 -24 27 -72 28 -86 2z"></path>
<path d="M5419 1583 c-5 -66 5 -501 12 -514 13 -26 84 -46 103 -30 18 15 9 48
-15 62 -17 9 -19 27 -21 247 l-3 237 -37 3 c-21 2 -38 0 -39 -5z"></path>
<path d="M5630 1586 c-3 -2 -4 -124 -2 -270 l3 -266 39 0 40 0 0 48 c1 37 7
54 30 81 26 30 50 35 50 10 0 -5 18 -38 40 -73 38 -59 44 -64 81 -68 22 -2 42
-1 44 3 3 3 -27 55 -66 114 l-71 107 28 32 c16 17 46 50 67 72 22 23 35 44 30
47 -4 2 -27 2 -50 -2 -37 -5 -48 -14 -109 -89 -37 -45 -69 -81 -71 -78 -2 2
-5 78 -6 168 l-2 163 -35 3 c-20 2 -38 1 -40 -2z"></path>
<path d="M6038 1579 c-38 -22 -8 -89 39 -89 23 0 53 29 53 52 0 37 -55 59 -92
37z"></path>
<path d="M262 1559 c-54 -16 -127 -95 -146 -158 -70 -239 112 -435 312 -335
57 28 61 37 34 72 l-18 24 -39 -26 c-67 -46 -153 -26 -192 46 -25 46 -25 190
0 236 37 69 136 95 192 50 l27 -21 19 24 c28 36 24 45 -33 73 -54 27 -99 31
-156 15z"></path>
<path d="M4164 1546 c-3 -8 -4 -25 -2 -38 3 -21 9 -23 72 -28 l69 -5 1 -214 1
-215 42 -1 43 -1 2 215 3 216 70 5 70 5 0 35 0 35 -183 3 c-152 2 -183 0 -188
-12z"></path>
<path d="M3405 1528 c-2 -7 -6 -33 -7 -58 -3 -41 -5 -45 -33 -50 -24 -4 -30
-10 -30 -30 0 -17 7 -26 25 -30 25 -6 25 -8 30 -130 3 -75 10 -134 18 -148 17
-30 51 -42 119 -42 53 0 55 1 49 23 -3 12 -6 25 -6 30 0 4 -16 7 -35 7 -55 0
-66 27 -63 151 l3 104 45 5 c40 4 45 8 45 30 0 22 -5 26 -45 30 l-45 5 -1 55
c-1 54 -1 55 -32 58 -20 2 -34 -2 -37 -10z"></path>
<path d="M6267 1533 c-4 -3 -7 -23 -7 -43 0 -41 -16 -67 -45 -72 -31 -5 -27
-50 5 -58 25 -6 25 -8 30 -130 3 -69 9 -133 14 -143 13 -28 60 -47 115 -47 55
0 67 10 51 40 -7 13 -21 20 -40 20 -49 0 -61 31 -58 151 l3 104 45 5 c40 4 45
8 45 30 0 22 -5 26 -45 30 l-45 5 -3 58 c-3 55 -4 57 -31 57 -15 0 -31 -3 -34
-7z"></path>
<path d="M1150 1424 c-19 -8 -45 -25 -57 -36 l-23 -21 0 26 c0 22 -5 27 -25
29 -14 0 -30 1 -36 2 -7 1 -10 -60 -10 -189 0 -129 3 -190 10 -189 6 1 25 2
41 3 l30 1 0 134 0 134 31 26 c38 32 73 33 93 4 13 -18 16 -52 16 -159 l0
-137 41 -4 c22 -2 42 -2 45 1 2 2 4 62 4 132 0 126 0 127 29 158 35 37 73 41
95 9 13 -18 16 -52 16 -159 0 -74 2 -138 4 -140 3 -3 23 -3 45 -1 l41 4 0 127
c0 141 -10 192 -45 227 -40 40 -117 32 -173 -19 l-22 -21 -17 23 c-14 21 -70
52 -90 51 -4 -1 -24 -8 -43 -16z"></path>
<path d="M2046 1430 c-16 -5 -42 -21 -57 -36 l-28 -27 -36 32 c-50 44 -110 44
-160 0 l-35 -31 -10 27 c-8 21 -16 26 -38 23 l-27 -3 -3 -175 c-1 -96 -1 -179
2 -185 2 -7 19 -9 40 -7 l36 4 0 127 0 127 31 32 c38 39 80 43 103 10 13 -18
16 -52 16 -160 l0 -138 40 0 40 0 0 128 0 128 34 33 c25 24 41 32 62 29 47 -5
55 -35 52 -186 l-3 -132 43 0 42 0 0 140 c0 153 -10 197 -52 223 -34 22 -59
26 -92 17z"></path>
<path d="M645 1414 c-48 -25 -73 -53 -89 -102 -42 -122 15 -242 128 -271 53
-13 103 -1 147 36 108 92 82 294 -44 342 -41 16 -107 13 -142 -5z m132 -68
c27 -23 28 -28 28 -111 0 -83 -1 -88 -28 -111 -71 -61 -147 -4 -147 111 0 115
76 172 147 111z"></path>
<path d="M2333 1423 l-33 -4 0 -132 c0 -151 10 -198 47 -227 44 -34 134 -22
172 24 16 19 31 12 31 -13 0 -13 9 -20 30 -23 17 -3 32 -2 35 0 6 7 7 367 1
373 -3 3 -23 3 -45 1 l-41 -4 0 -133 0 -133 -31 -27 c-23 -18 -41 -25 -63 -23
-49 5 -57 33 -55 187 1 75 -2 136 -7 136 -5 1 -24 0 -41 -2z"></path>
<path d="M2855 1399 l-35 -31 -10 26 c-7 20 -16 26 -40 26 l-30 0 0 -185 0
-185 40 0 40 0 0 131 0 131 29 29 c37 36 83 39 105 7 13 -18 16 -52 16 -159 0
-74 2 -138 4 -140 3 -3 23 -3 45 -1 l41 4 0 132 c0 72 -5 148 -10 168 -15 52
-51 78 -111 78 -40 0 -55 -5 -84 -31z"></path>
<path d="M3174 1421 c-5 -6 -5 -366 0 -372 3 -3 23 -3 45 -1 l41 4 0 183 0
183 -41 4 c-22 2 -42 2 -45 -1z"></path>
<path d="M4641 1412 c-19 -9 -48 -34 -64 -54 -26 -32 -31 -48 -34 -110 -6 -97
20 -151 92 -187 166 -86 322 98 234 276 -42 84 -145 118 -228 75z m118 -52
c37 -20 59 -107 45 -179 -16 -76 -96 -107 -145 -55 -21 23 -24 35 -24 109 0
74 3 86 24 109 26 27 67 34 100 16z"></path>
<path d="M5062 1413 c-89 -43 -127 -186 -76 -285 46 -90 187 -116 265 -51 108
92 82 294 -44 342 -41 16 -107 13 -145 -6z m131 -63 c77 -60 42 -250 -45 -250
-63 0 -98 48 -98 135 0 112 73 170 143 115z"></path>
<path d="M6063 1423 l-33 -4 0 -185 0 -184 30 -1 c17 -1 35 -2 41 -3 13 -1 16
378 2 379 -4 1 -23 0 -40 -2z"></path>
<path d="M3610 1417 c0 -2 33 -86 74 -187 63 -155 73 -187 64 -209 -15 -41
-39 -61 -70 -61 -21 0 -31 -6 -38 -26 -13 -33 -6 -44 31 -44 48 0 96 26 123
67 21 33 166 428 166 454 0 6 -17 9 -37 7 -36 -3 -39 -5 -56 -58 -10 -30 -29
-93 -41 -140 -13 -47 -27 -83 -32 -80 -5 2 -19 38 -31 80 -12 41 -33 102 -46
135 -23 59 -24 60 -65 63 -23 2 -42 1 -42 -1z"></path>
<path d="M4512 718 c-37 -37 15 -102 64 -80 31 15 40 37 26 68 -9 18 -19 24
-45 24 -18 0 -38 -5 -45 -12z"></path>
<path d="M6100 710 c-15 -28 -4 -59 25 -72 48 -22 99 44 63 80 -20 20 -76 15
-88 -8z"></path>
<path d="M1507 696 c-48 -18 -81 -48 -115 -105 -20 -35 -27 -61 -30 -125 -6
-110 9 -156 66 -216 73 -75 171 -91 270 -45 l53 24 -3 113 -3 113 -80 0 -80 0
0 -30 c0 -28 3 -30 45 -35 l45 -5 3 -48 c4 -65 -8 -77 -77 -77 -106 0 -154 54
-155 175 -2 127 50 195 149 195 26 0 60 -7 76 -17 27 -16 29 -16 49 2 28 26
25 40 -16 65 -45 28 -143 36 -197 16z"></path>
<path d="M130 695 c0 -3 0 -116 -1 -252 l0 -248 42 0 41 0 2 100 1 100 90 5
90 5 0 30 0 30 -90 5 -90 5 0 70 0 70 105 5 105 5 0 35 0 35 -147 3 c-82 1
-148 0 -148 -3z"></path>
<path d="M4035 689 c-3 -8 -4 -122 -3 -254 l3 -240 111 0 c106 1 114 2 160 30
65 40 95 101 102 199 7 117 -33 208 -111 247 -54 28 -253 41 -262 18z m209
-83 c52 -22 76 -70 76 -155 0 -119 -42 -172 -140 -179 l-60 -4 0 176 0 176 45
0 c25 0 61 -6 79 -14z"></path>
<path d="M2945 668 c-2 -7 -6 -31 -7 -53 -3 -36 -6 -40 -33 -45 -26 -4 -30
-10 -30 -35 1 -25 5 -31 28 -33 l27 -3 0 -102 c0 -168 21 -207 113 -214 64 -6
90 10 76 45 -7 20 -14 23 -37 17 -21 -4 -33 -1 -45 13 -15 16 -17 37 -15 128
l3 109 45 5 c42 5 45 7 45 35 0 28 -3 30 -45 35 l-45 5 -5 50 c-5 48 -6 50
-38 53 -20 2 -34 -2 -37 -10z"></path>
<path d="M6339 678 c0 -2 -2 -21 -5 -43 -6 -56 -10 -63 -36 -67 -18 -2 -23 -9
-23 -33 0 -22 5 -30 24 -35 23 -5 24 -8 22 -102 -3 -124 10 -173 52 -198 36
-23 105 -26 129 -7 12 9 14 18 7 34 -7 18 -14 22 -36 17 -21 -4 -33 0 -46 14
-15 16 -17 36 -15 128 l3 109 45 5 c42 5 45 7 45 35 0 28 -3 30 -45 35 l-45 5
-5 50 c-5 48 -6 50 -37 53 -18 2 -33 2 -34 0z"></path>
<path d="M585 561 c-70 -32 -105 -93 -105 -183 1 -101 60 -181 144 -193 86
-13 151 18 186 89 18 39 22 60 18 120 -3 62 -8 79 -32 111 -32 41 -95 75 -141
75 -16 0 -48 -9 -70 -19z m130 -75 c47 -48 45 -168 -5 -218 -69 -69 -140 -10
-140 116 0 55 4 69 26 95 33 40 83 43 119 7z"></path>
<path d="M1051 545 c-21 -19 -41 -35 -44 -35 -3 0 -7 12 -9 28 -3 23 -8 27
-33 27 l-30 0 0 -185 0 -185 40 0 40 0 1 124 1 125 32 28 c20 18 43 28 61 28
24 0 33 6 41 27 14 37 5 53 -31 53 -20 0 -42 -11 -69 -35z"></path>
<path d="M2014 570 c-12 -4 -31 -20 -42 -35 -28 -35 -36 -35 -42 1 -4 24 -10
29 -35 29 l-30 0 0 -185 0 -185 40 0 40 0 5 128 c5 126 6 129 33 153 16 14 41
24 58 24 21 0 32 7 41 24 21 48 -11 69 -68 46z"></path>
<path d="M2235 566 c-132 -61 -155 -264 -39 -352 33 -26 46 -29 109 -29 51 0
78 5 98 18 31 20 32 26 14 51 -13 17 -15 17 -45 2 -42 -22 -84 -20 -116 5 -32
25 -61 78 -49 90 4 4 60 10 123 11 l115 3 -1 52 c-3 90 -55 152 -135 159 -25
3 -57 -2 -74 -10z m105 -66 c19 -10 43 -67 34 -81 -7 -12 -161 -11 -169 1 -8
13 21 67 42 79 23 13 69 14 93 1z"></path>
<path d="M2620 574 c-90 -32 -102 -44 -77 -78 11 -16 15 -16 49 -1 73 30 130
14 140 -39 3 -17 -8 -22 -71 -37 -113 -26 -156 -68 -147 -144 10 -86 97 -120
183 -70 42 24 43 24 54 4 7 -14 18 -19 37 -17 l27 3 3 125 c4 143 -5 184 -48
225 -23 22 -40 29 -82 31 -29 2 -60 1 -68 -2z m118 -240 c3 -35 -1 -45 -24
-63 -39 -31 -70 -36 -99 -17 -30 20 -32 45 -6 77 20 25 75 49 106 46 16 -2 21
-10 23 -43z"></path>
<path d="M3275 566 c-115 -53 -152 -226 -69 -325 50 -60 175 -79 240 -36 28
18 29 24 10 50 -12 17 -14 17 -37 2 -32 -23 -85 -21 -120 4 -34 24 -65 77 -52
90 4 4 60 10 123 11 l115 3 -1 52 c-3 90 -55 152 -135 159 -25 3 -57 -2 -74
-10z m128 -94 c31 -52 19 -62 -71 -62 -43 0 -81 3 -85 6 -10 10 14 64 37 80
12 9 37 14 61 12 32 -3 42 -9 58 -36z"></path>
<path d="M3701 545 c-21 -19 -41 -35 -44 -35 -3 0 -7 12 -9 28 -3 23 -8 27
-33 27 l-30 0 0 -185 0 -185 39 0 38 0 -1 118 -2 118 34 34 c25 25 44 35 66
35 25 0 34 6 42 27 14 37 5 53 -31 53 -20 0 -42 -11 -69 -35z"></path>
<path d="M5191 570 c-80 -34 -121 -98 -121 -190 0 -130 88 -211 213 -197 48 6
97 29 97 45 0 5 -6 16 -13 26 -13 17 -15 17 -45 2 -49 -25 -87 -20 -127 16
-19 18 -36 44 -37 58 l-3 25 124 3 124 3 -6 55 c-10 96 -60 153 -138 160 -24
2 -55 -1 -68 -6z m99 -70 c19 -10 43 -67 34 -81 -7 -12 -161 -11 -169 1 -8 13
21 67 42 79 23 13 69 14 93 1z"></path>
<path d="M5628 564 c-15 -8 -32 -23 -38 -34 -15 -28 -28 -25 -32 8 -2 22 -8
28 -35 30 l-33 3 0 -190 0 -191 40 0 40 0 0 118 c0 157 15 183 109 194 18 2
27 11 32 32 5 16 6 33 3 38 -8 13 -56 9 -86 -8z"></path>
<path d="M5824 566 c-42 -19 -64 -52 -64 -99 0 -55 12 -71 72 -97 77 -33 108
-57 108 -85 0 -47 -65 -59 -125 -24 -34 21 -37 21 -55 4 -11 -10 -20 -24 -20
-31 0 -20 56 -45 115 -51 103 -11 165 32 165 115 0 56 -29 85 -114 116 -66 23
-87 46 -70 74 14 22 58 27 106 11 35 -11 40 -10 53 7 21 28 19 33 -27 54 -50
23 -100 25 -144 6z"></path>
<path d="M4515 558 c-3 -8 -4 -92 -3 -188 l3 -175 40 0 40 0 0 185 0 185 -38
3 c-24 2 -39 -1 -42 -10z"></path>
<path d="M4676 562 c-3 -6 12 -61 35 -123 22 -63 50 -143 62 -179 l22 -65 46
-3 c29 -2 49 2 56 10 5 7 31 78 58 158 26 80 54 157 62 173 16 32 5 41 -43 35
-25 -3 -30 -11 -56 -88 -16 -47 -36 -113 -45 -148 -8 -34 -20 -61 -26 -59 -5
1 -22 45 -37 97 -62 213 -53 195 -93 198 -19 2 -38 -1 -41 -6z"></path>
<path d="M6110 568 c-1 -2 -1 -86 -2 -188 l-1 -185 39 0 39 0 0 185 0 185 -37
3 c-21 2 -38 2 -38 0z"></path>
<path d="M6548 565 c-3 -4 0 -19 8 -33 15 -30 104 -246 124 -303 22 -62 -12
-129 -65 -129 -27 0 -50 -32 -41 -57 5 -12 16 -14 48 -10 44 6 81 28 110 68
23 31 170 448 162 460 -8 13 -60 11 -71 -3 -5 -7 -24 -67 -42 -133 -45 -164
-41 -153 -53 -135 -5 8 -28 73 -52 145 l-42 130 -40 3 c-22 2 -43 0 -46 -3z"></path>
</g>
</svg>